<?xml version="1.0" encoding="utf-8"?>
<!-- Generator: Adobe Illustrator 25.2.1, SVG Export Plug-In . SVG Version: 6.00 Build 0)  -->
<svg version="1.1" xmlns="http://www.w3.org/2000/svg" xmlns:xlink="http://www.w3.org/1999/xlink" x="0px" y="0px"
	 viewBox="0 0 4000 4000" style="enable-background:new 0 0 4000 4000;" xml:space="preserve">
<style type="text/css">
	.st0{fill:#FFD00B;}
	.st1{fill:#FFAA00;}
	.st2{fill:#FF1A1A;}
	.st3{fill:#D8E5EA;}
</style>
<g id="Capa_1">
</g>
<g id="Capa_2">
</g>
<g id="Capa_3">
</g>
<g id="Capa_4">
</g>
<g id="Capa_5">
	<g>
		<g>
			<g>
				<path class="st0" d="M3129.93,3973.96c-24.01,0-47.37-5.98-69.44-17.76l-969.41-517.67c-27.94-14.92-59.44-22.8-91.11-22.8
					c-31.4,0-62.66,7.76-90.41,22.43l-971.51,513.7c-21.93,11.6-45.12,17.48-68.93,17.48c-42.8,0-85.18-19.95-113.36-53.38
					c-28.08-33.31-39.42-75.71-31.91-119.38L912.3,2699.53c10.69-62.21-9.72-125.86-54.6-170.25L69.09,1749.13
					c-20.58-20.36-34.61-45.52-40.58-72.77c-5.62-25.65-4.15-52.67,4.23-78.15c8.39-25.47,23.27-48.08,43.03-65.37
					c20.99-18.37,47.22-30.27,75.88-34.42l1089.16-157.7c63.22-9.15,117.77-48.86,145.92-106.2l487.64-993.54
					c12.84-26.15,32.36-47.55,56.46-61.87c22.68-13.48,48.91-20.6,75.87-20.6c27.07,0,53.39,7.17,76.13,20.75
					c24.17,14.43,43.7,35.95,56.48,62.26l483.58,995.52c27.91,57.46,82.3,97.39,145.48,106.8l1088.51,162.14
					c28.64,4.27,54.82,16.27,75.74,34.73c19.69,17.37,34.47,40.04,42.76,65.55c8.28,25.51,9.64,52.54,3.92,78.16
					c-6.08,27.22-20.21,52.32-40.88,72.6l-791.79,776.92c-45.06,44.21-65.73,107.77-55.29,170.03l183.98,1097.81
					c7.3,43.58-4.13,85.85-32.2,119.01C3214.95,3954.08,3172.64,3973.96,3129.93,3973.96z"/>
				<g>
					<path d="M2006.7,181.53c22.92,0,45.17,6.05,64.35,17.5c20.6,12.29,36.61,29.98,47.58,52.56l483.58,995.52
						c31.23,64.29,92.08,108.97,162.78,119.5l1088.51,162.14c24.58,3.66,46.08,13.49,63.9,29.22c16.6,14.65,29.09,33.81,36.1,55.41
						c7.01,21.59,8.17,44.43,3.34,66.05c-5.18,23.2-16.8,43.79-34.54,61.2l-791.79,776.92c-50.42,49.47-73.54,120.59-61.87,190.25
						l183.98,1097.81c6.17,36.8-3.45,72.44-27.07,100.35c-11.68,13.8-26.51,25.21-42.9,32.99c-16.58,7.87-34.81,12.03-52.74,12.03
						c-20.19,0-39.91-5.06-58.61-15.05l-969.41-517.67c-31.26-16.69-66.51-25.51-101.94-25.51c-35.13,0-70.11,8.68-101.17,25.1
						l-971.51,513.7c-18.59,9.83-38.16,14.81-58.18,14.81c-17.97,0-36.24-4.18-52.85-12.09c-16.41-7.81-31.25-19.27-42.93-33.12
						c-23.63-28.04-33.16-63.79-26.83-100.66l188.46-1097.05c11.96-69.61-10.88-140.83-61.09-190.5L85.27,1732.78
						c-17.67-17.48-29.2-38.11-34.29-61.34c-4.74-21.63-3.49-44.47,3.61-66.03c7.1-21.57,19.66-40.67,36.33-55.26
						c17.89-15.66,39.43-25.4,64.02-28.96l1089.16-157.7c70.74-10.24,131.78-54.67,163.27-118.83l487.64-993.54
						c11.02-22.45,27.02-40.02,47.56-52.23C1961.7,187.53,1983.88,181.53,2006.7,181.53 M2006.7,135.53
						c-60.88,0-121.77,31.76-152.98,95.33l-487.64,993.54c-24.78,50.5-72.89,85.51-128.57,93.57l-1089.16,157.7
						c-139.26,20.16-195.47,190.86-95.43,289.82l788.61,780.14c39.57,39.15,57.53,95.15,48.11,150.01L701.17,3792.69
						c-18.93,110.2,68.64,199.66,167.94,199.66c26.32,0,53.48-6.29,79.68-20.15l971.51-513.7c24.92-13.18,52.29-19.77,79.66-19.76
						c27.6,0,55.2,6.7,80.28,20.09l969.41,517.67c26.37,14.08,53.74,20.47,80.28,20.47c99.02,0,186.52-88.95,168.08-198.97
						l-183.98-1097.81c-9.2-54.9,8.99-110.83,48.72-149.81l791.79-776.92c100.44-98.55,44.92-269.47-94.25-290.2L2771.77,1321.1
						c-55.64-8.29-103.61-43.5-128.18-94.1L2160,231.48C2128.94,167.53,2067.82,135.53,2006.7,135.53L2006.7,135.53z"/>
				</g>
			</g>
			<g>
				<path class="st1" d="M3125.72,3974.24c-24.02,0-47.38-5.98-69.45-17.76l-969.41-517.67c-19.83-10.59-41.58-17.66-63.87-20.85
					V160.22c19.75,2.69,38.68,9.25,55.63,19.35c24.17,14.42,43.7,35.94,56.47,62.25l483.58,995.52
					c27.91,57.46,82.3,97.39,145.48,106.8l1088.51,162.14c28.63,4.27,54.82,16.27,75.74,34.73c19.69,17.37,34.47,40.04,42.76,65.55
					c8.28,25.51,9.64,52.53,3.92,78.16c-6.08,27.22-20.21,52.32-40.88,72.6l-791.79,776.92c-45.06,44.21-65.73,107.77-55.29,170.03
					l183.98,1097.81c7.31,43.59-4.13,85.86-32.21,119.03c-28.17,33.27-70.47,53.14-113.17,53.14
					C3125.73,3974.24,3125.73,3974.24,3125.72,3974.24z"/>
				<g>
					<path d="M2046,189.44c7.25,2.64,14.23,5.94,20.84,9.89c20.6,12.29,36.6,29.97,47.57,52.54L2598,1247.38
						c31.23,64.29,92.09,108.97,162.78,119.5l1088.51,162.14c24.58,3.66,46.08,13.49,63.9,29.22c16.6,14.65,29.09,33.81,36.1,55.41
						c7.01,21.59,8.17,44.43,3.34,66.05c-5.18,23.2-16.8,43.79-34.54,61.2l-791.79,776.92c-50.41,49.47-73.54,120.59-61.87,190.25
						l183.98,1097.81c6.17,36.8-3.45,72.44-27.07,100.35c-11.68,13.8-26.51,25.2-42.9,32.98c-16.58,7.87-34.82,12.03-52.74,12.03
						c-20.19,0-39.91-5.06-58.61-15.05l-969.41-517.66c-16.29-8.7-33.72-15.27-51.7-19.56V189.44 M2002.49,135.83
						c-0.83,0-1.66,0.01-2.49,0.02v3303.23c26.18,0.65,52.24,7.32,76.04,20.02l969.41,517.66c26.37,14.08,53.75,20.47,80.28,20.47
						c99.03,0,186.52-88.94,168.08-198.97l-183.98-1097.81c-9.2-54.9,8.99-110.83,48.72-149.81l791.79-776.92
						c100.44-98.55,44.92-269.47-94.25-290.2l-1088.51-162.14c-55.64-8.29-103.61-43.5-128.18-94.1l-483.58-995.52
						C2124.73,167.82,2063.61,135.83,2002.49,135.83L2002.49,135.83z"/>
				</g>
			</g>
		</g>
		<g>
			<g>
				<path class="st2" d="M2002.04,2902.85c-88.22,0-173.79-17.27-254.33-51.34c-77.81-32.91-147.69-80.03-207.7-140.04
					c-60.02-60.02-107.13-129.9-140.04-207.71c-34.07-80.54-51.34-166.11-51.34-254.33s17.27-173.79,51.34-254.33
					c32.91-77.81,80.03-147.69,140.04-207.7c60.02-60.02,129.9-107.13,207.7-140.04c80.54-34.07,166.11-51.34,254.33-51.34
					s173.79,17.27,254.33,51.34c77.81,32.91,147.69,80.03,207.71,140.04c60.02,60.02,107.13,129.9,140.04,207.7
					c34.07,80.54,51.34,166.11,51.34,254.33s-17.27,173.79-51.34,254.33c-32.91,77.81-80.03,147.69-140.04,207.71
					s-129.9,107.13-207.71,140.04C2175.83,2885.57,2090.26,2902.85,2002.04,2902.85z"/>
				<g>
					<path d="M2002.04,1619c85.13,0,167.68,16.66,245.38,49.52c37.35,15.8,73.37,35.35,107.07,58.12
						c33.39,22.56,64.79,48.47,93.33,77.01c28.54,28.54,54.45,59.94,77.01,93.33c22.77,33.7,42.32,69.72,58.12,107.07
						c32.86,77.69,49.52,160.25,49.52,245.38s-16.66,167.68-49.52,245.38c-15.8,37.35-35.35,73.37-58.12,107.07
						c-22.56,33.39-48.47,64.79-77.01,93.33c-28.54,28.54-59.94,54.45-93.33,77.01c-33.7,22.77-69.72,42.32-107.07,58.12
						c-77.69,32.86-160.25,49.52-245.38,49.52s-167.68-16.66-245.38-49.52c-37.35-15.8-73.37-35.35-107.07-58.12
						c-33.39-22.56-64.79-48.47-93.33-77.01c-28.54-28.54-54.45-59.94-77.01-93.33c-22.77-33.7-42.32-69.72-58.12-107.07
						c-32.86-77.69-49.52-160.25-49.52-245.38s16.66-167.68,49.52-245.38c15.8-37.35,35.35-73.37,58.12-107.07
						c22.56-33.39,48.47-64.79,77.01-93.33c28.54-28.54,59.94-54.45,93.33-77.01c33.7-22.77,69.72-42.32,107.07-58.12
						C1834.36,1635.66,1916.91,1619,2002.04,1619 M2002.04,1573c-373.58,0-676.42,302.84-676.42,676.42s302.84,676.42,676.42,676.42
						s676.42-302.84,676.42-676.42S2375.62,1573,2002.04,1573L2002.04,1573z"/>
				</g>
			</g>
			<g>
				<path class="st3" d="M1997.42,2904c-88.52,0-174.36-15.55-255.13-46.21c-77.89-29.56-147.81-71.86-207.81-125.7
					c-59.82-53.69-106.77-116.14-139.52-185.64c-33.82-71.75-50.96-147.94-50.96-226.47c0-15.45,0.68-30.99,2.04-46.4h1302.77
					c1.35,15.41,2.04,30.95,2.04,46.4c0,78.53-17.15,154.73-50.96,226.47c-32.75,69.49-79.69,131.95-139.52,185.64
					c-60,53.85-129.92,96.14-207.81,125.7C2171.78,2888.45,2085.94,2904,1997.42,2904z"/>
				<g>
					<path d="M2627.3,2296.58c0.36,7.8,0.54,15.62,0.54,23.4c0,75.11-16.41,148.01-48.77,216.67
						c-15.62,33.13-34.96,65.11-57.51,95.06c-22.41,29.77-48.17,57.78-76.57,83.27c-28.49,25.56-59.85,48.79-93.23,69.02
						c-33.78,20.48-69.9,38.07-107.38,52.3c-78.16,29.67-161.25,44.71-246.97,44.71c-85.72,0-168.81-15.04-246.97-44.71
						c-37.47-14.22-73.6-31.82-107.38-52.3c-33.38-20.24-64.75-43.46-93.23-69.02c-28.4-25.48-54.16-53.5-76.57-83.27
						c-22.54-29.94-41.89-61.93-57.51-95.06c-32.36-68.66-48.77-141.55-48.77-216.67c0-7.79,0.18-15.6,0.54-23.4H2627.3
						 M2669.47,2250.58h-1344.1c-2.89,22.78-4.38,45.93-4.38,69.4c0,335.25,302.84,607.02,676.42,607.02
						s676.42-271.77,676.42-607.02C2673.85,2296.51,2672.36,2273.35,2669.47,2250.58L2669.47,2250.58z"/>
				</g>
			</g>
			<g>
				
					<ellipse transform="matrix(0.7071 -0.7071 0.7071 0.7071 -1009.6726 2076.2864)" class="st3" cx="2001.46" cy="2256.93" rx="210.75" ry="210.75"/>
				<path d="M2001.46,2069.18c50.15,0,97.3,19.53,132.76,54.99s54.99,82.61,54.99,132.76s-19.53,97.3-54.99,132.76
					s-82.61,54.99-132.76,54.99s-97.3-19.53-132.76-54.99s-54.99-82.61-54.99-132.76s19.53-97.3,54.99-132.76
					S1951.31,2069.18,2001.46,2069.18 M2001.46,2023.18c-129.09,0-233.75,104.65-233.75,233.75s104.65,233.75,233.75,233.75
					s233.75-104.65,233.75-233.75S2130.56,2023.18,2001.46,2023.18L2001.46,2023.18z"/>
			</g>
		</g>
	</g>
</g>
</svg>
